HIERARCHY
ROOT Hips
{
  OFFSET 0.422985 81.1382 -0.811602
  CHANNELS 6 Xposition Yposition Zposition Zrotation Xrotation Yrotation
  JOINT Spine
  {
    OFFSET 0 9.92346 -1.22733
    CHANNELS 6 Xposition Yposition Zposition Zrotation Xrotation Yrotation
    JOINT Spine1
    {
      OFFSET -0.000138865 11.6454 -1.42234
      CHANNELS 6 Xposition Yposition Zposition Zrotation Xrotation Yrotation
      JOINT Spine2
      {
        OFFSET 9.14407e-005 13.3602 -1.62646
        CHANNELS 6 Xposition Yposition Zposition Zrotation Xrotation Yrotation
        JOINT Neck
        {
          OFFSET 2.52021e-005 15.0325 0.792905
          CHANNELS 6 Xposition Yposition Zposition Zrotation Xrotation Yrotation
          JOINT Head
          {
            OFFSET 0 10.3218 3.14243
            CHANNELS 6 Xposition Yposition Zposition Zrotation Xrotation Yrotation
            End Site
            {
              OFFSET 0.000154173 18.4747 6.6364
            }
          }
        }
        JOINT LeftShoulder
        {
          OFFSET 6.10582 9.11042 0.705551
          CHANNELS 6 Xposition Yposition Zposition Zrotation Xrotation Yrotation
          JOINT LeftArm
          {
            OFFSET 12.655 -0.265934 -2.60092
            CHANNELS 6 Xposition Yposition Zposition Zrotation Xrotation Yrotation
            JOINT LeftForeArm
            {
              OFFSET 27.4047 3.91267e-005 0
              CHANNELS 6 Xposition Yposition Zposition Zrotation Xrotation Yrotation
              JOINT LeftHand
              {
                OFFSET 27.6145 2.89518e-005 1.96466e-005
                CHANNELS 6 Xposition Yposition Zposition Zrotation Xrotation Yrotation
                JOINT LeftHandMiddle1
                {
                  OFFSET 12.7755 1.3342e-005 2.04185e-005
                  CHANNELS 6 Xposition Yposition Zposition Zrotation Xrotation Yrotation
                  JOINT LeftHandMiddle2
                  {
                    OFFSET 3.61397 0 0
                    CHANNELS 6 Xposition Yposition Zposition Zrotation Xrotation Yrotation
                    JOINT LeftHandMiddle3
                    {
                      OFFSET 3.45976 0 -2.64197e-005
                      CHANNELS 6 Xposition Yposition Zposition Zrotation Xrotation Yrotation
                      End Site
                      {
                        OFFSET 3.68019 0 3.27692e-005
                      }
                    }
                  }
                }
                JOINT LeftHandThumb1
                {
                  OFFSET 3.78881 -2.167 3.00309
                  CHANNELS 6 Xposition Yposition Zposition Zrotation Xrotation Yrotation
                  JOINT LeftHandThumb2
                  {
                    OFFSET 3.67544 -2.12201 2.12201
                    CHANNELS 6 Xposition Yposition Zposition Zrotation Xrotation Yrotation
                    JOINT LeftHandThumb3
                    {
                      OFFSET 3.39436 -1.95974 1.95979
                      CHANNELS 6 Xposition Yposition Zposition Zrotation Xrotation Yrotation
                      End Site
                      {
                        OFFSET 2.6794 -1.54694 1.54692
                      }
                    }
                  }
                }
                JOINT LeftHandIndex1
                {
                  OFFSET 12.2666 -0.231669 2.82206
                  CHANNELS 6 Xposition Yposition Zposition Zrotation Xrotation Yrotation
                  JOINT LeftHandIndex2
                  {
                    OFFSET 3.89197 0 3.87215e-005
                    CHANNELS 6 Xposition Yposition Zposition Zrotation Xrotation Yrotation
                    JOINT LeftHandIndex3
                    {
                      OFFSET 3.41516 0 0
                      CHANNELS 6 Xposition Yposition Zposition Zrotation Xrotation Yrotation
                      End Site
                      {
                        OFFSET 3.07799 0 0
                      }
                    }
                  }
                }
                JOINT LeftHandRing1
                {
                  OFFSET 12.147 0.00989498 -2.21663
                  CHANNELS 6 Xposition Yposition Zposition Zrotation Xrotation Yrotation
                  JOINT LeftHandRing2
                  {
                    OFFSET 3.60119 0 3.51122e-005
                    CHANNELS 6 Xposition Yposition Zposition Zrotation Xrotation Yrotation
                    JOINT LeftHandRing3
                    {
                      OFFSET 3.30732 0 -2.08933e-005
                      CHANNELS 6 Xposition Yposition Zposition Zrotation Xrotation Yrotation
                      End Site
                      {
                        OFFSET 3.66012 0 0
                      }
                    }
                  }
                }
                JOINT LeftHandPinky1
                {
                  OFFSET 10.9082 -0.226365 -4.72582
                  CHANNELS 6 Xposition Yposition Zposition Zrotation Xrotation Yrotation
                  JOINT LeftHandPinky2
                  {
                    OFFSET 4.13665 0 2.68984e-005
                    CHANNELS 6 Xposition Yposition Zposition Zrotation Xrotation Yrotation
                    JOINT LeftHandPinky3
                    {
                      OFFSET 2.59484 0 -3.6009e-005
                      CHANNELS 6 Xposition Yposition Zposition Zrotation Xrotation Yrotation
                      End Site
                      {
                        OFFSET 2.92387 0 1.87321e-005
                      }
                    }
                  }
                }
              }
            }
          }
        }
        JOINT RightShoulder
        {
          OFFSET -6.1057 9.11051 0.705563
          CHANNELS 6 Xposition Yposition Zposition Zrotation Xrotation Yrotation
          JOINT RightArm
          {
            OFFSET -12.655 -0.266021 -2.6009
            CHANNELS 6 Xposition Yposition Zposition Zrotation Xrotation Yrotation
            JOINT RightForeArm
            {
              OFFSET -27.4047 3.28841e-005 0
              CHANNELS 6 Xposition Yposition Zposition Zrotation Xrotation Yrotation
              JOINT RightHand
              {
                OFFSET -27.6145 2.26615e-005 1.83241e-005
                CHANNELS 6 Xposition Yposition Zposition Zrotation Xrotation Yrotation
                JOINT RightHandMiddle1
                {
                  OFFSET -12.7755 0 1.80116e-005
                  CHANNELS 6 Xposition Yposition Zposition Zrotation Xrotation Yrotation
                  JOINT RightHandMiddle2
                  {
                    OFFSET -3.61397 0 0
                    CHANNELS 6 Xposition Yposition Zposition Zrotation Xrotation Yrotation
                    JOINT RightHandMiddle3
                    {
                      OFFSET -3.45976 0 -2.64579e-005
                      CHANNELS 6 Xposition Yposition Zposition Zrotation Xrotation Yrotation
                      End Site
                      {
                        OFFSET -3.68019 0 3.25098e-005
                      }
                    }
                  }
                }
                JOINT RightHandThumb1
                {
                  OFFSET -3.78881 -2.167 3.00309
                  CHANNELS 6 Xposition Yposition Zposition Zrotation Xrotation Yrotation
                  JOINT RightHandThumb2
                  {
                    OFFSET -3.67544 -2.12201 2.12201
                    CHANNELS 6 Xposition Yposition Zposition Zrotation Xrotation Yrotation
                    JOINT RightHandThumb3
                    {
                      OFFSET -3.39436 -1.95975 1.95979
                      CHANNELS 6 Xposition Yposition Zposition Zrotation Xrotation Yrotation
                      End Site
                      {
                        OFFSET -2.6794 -1.54695 1.54692
                      }
                    }
                  }
                }
                JOINT RightHandIndex1
                {
                  OFFSET -12.2666 -0.231673 2.82206
                  CHANNELS 6 Xposition Yposition Zposition Zrotation Xrotation Yrotation
                  JOINT RightHandIndex2
                  {
                    OFFSET -3.89197 0 3.7513e-005
                    CHANNELS 6 Xposition Yposition Zposition Zrotation Xrotation Yrotation
                    JOINT RightHandIndex3
                    {
                      OFFSET -3.41516 0 0
                      CHANNELS 6 Xposition Yposition Zposition Zrotation Xrotation Yrotation
                      End Site
                      {
                        OFFSET -3.07799 0 0
                      }
                    }
                  }
                }
                JOINT RightHandRing1
                {
                  OFFSET -12.147 0.0098909 -2.21663
                  CHANNELS 6 Xposition Yposition Zposition Zrotation Xrotation Yrotation
                  JOINT RightHandRing2
                  {
                    OFFSET -3.60119 0 3.4867e-005
                    CHANNELS 6 Xposition Yposition Zposition Zrotation Xrotation Yrotation
                    JOINT RightHandRing3
                    {
                      OFFSET -3.30732 0 -2.11146e-005
                      CHANNELS 6 Xposition Yposition Zposition Zrotation Xrotation Yrotation
                      End Site
                      {
                        OFFSET -3.66012 0 0
                      }
                    }
                  }
                }
                JOINT RightHandPinky1
                {
                  OFFSET -10.9082 -0.226369 -4.72582
                  CHANNELS 6 Xposition Yposition Zposition Zrotation Xrotation Yrotation
                  JOINT RightHandPinky2
                  {
                    OFFSET -4.13665 0 2.56096e-005
                    CHANNELS 6 Xposition Yposition Zposition Zrotation Xrotation Yrotation
                    JOINT RightHandPinky3
                    {
                      OFFSET -2.59484 0 -3.66612e-005
                      CHANNELS 6 Xposition Yposition Zposition Zrotation Xrotation Yrotation
                      End Site
                      {
                        OFFSET -2.92387 0 1.86957e-005
                      }
                    }
                  }
                }
              }
            }
          }
        }
      }
    }
  }
  JOINT RightUpLeg
  {
    OFFSET -9.12445 -6.6564 -0.0553779
    CHANNELS 6 Xposition Yposition Zposition Zrotation Xrotation Yrotation
    JOINT RightLeg
    {
      OFFSET -0.24468 -40.5954 -0.514528
      CHANNELS 6 Xposition Yposition Zposition Zrotation Xrotation Yrotation
      JOINT RightFoot
      {
        OFFSET 0.244669 -42.0479 -2.06023
        CHANNELS 6 Xposition Yposition Zposition Zrotation Xrotation Yrotation
        JOINT RightToeBase
        {
          OFFSET -0.37336 -10.4922 12.6407
          CHANNELS 6 Xposition Yposition Zposition Zrotation Xrotation Yrotation
          End Site
          {
            OFFSET 0 0 9.99252
          }
        }
      }
    }
  }
  JOINT LeftUpLeg
  {
    OFFSET 9.12445 -6.6564 -0.0553779
    CHANNELS 6 Xposition Yposition Zposition Zrotation Xrotation Yrotation
    JOINT LeftLeg
    {
      OFFSET 0.24468 -40.5954 -0.517041
      CHANNELS 6 Xposition Yposition Zposition Zrotation Xrotation Yrotation
      JOINT LeftFoot
      {
        OFFSET -0.24467 -42.048 -2.05764
        CHANNELS 6 Xposition Yposition Zposition Zrotation Xrotation Yrotation
        JOINT LeftToeBase
        {
          OFFSET 0.37336 -10.4922 12.6407
          CHANNELS 6 Xposition Yposition Zposition Zrotation Xrotation Yrotation
          End Site
          {
            OFFSET 0 0 9.99252
          }
        }
      }
    }
  }
}
MOTION
Frames:	4
Frame Time:	0.0333333
9.39129 13.277 -18.5952 55.6132 -79.2034 130.926 5.64832e-007 9.92346 -1.22733 -6.16245 16.475 -8.63719 -0.000138865 11.6454 -1.42234 -4.23173 10.6048 -4.22174 9.14407e-005 13.3602 -1.62646 -4.10487 10.4351 -4.71968 2.52021e-005 15.0325 0.792905 -14.2209 -4.95156 6.20328 2.37075e-006 10.3218 3.14243 -16.781 -30.1556 3.43713 6.10582 9.11042 0.705551 30.3075 0.978604 -6.26014 12.655 -0.265934 -2.60092 -125.26 -36.7811 -98.9866 27.4047 3.91267e-005 6.58811e-006 2.07656e-007 7.20703e-007 -29.0221 27.6145 2.89518e-005 1.96466e-005 8.18408 2.56749 16.4366 12.7755 1.3342e-005 2.04185e-005 0.0159926 -1.12081e-006 -0.00192342 3.61397 2.66014e-006 2.46236e-006 -0.0160047 -1.36412e-006 0.00192949 3.45976 5.43247e-007 -2.64197e-005 -9.91007e-006 1.33328e-007 -2.37636e-006 3.78881 -2.167 3.00309 6.13176 -1.13776 3.83289 3.67544 -2.12201 2.12201 0.740432 4.04263 7.89749 3.39436 -1.95974 1.95979 2.53773 -0.509692 1.59812 12.2666 -0.231669 2.82206 9.44697e-006 -1.12432e-006 -9.57832e-007 3.89197 1.68687e-006 3.87215e-005 -1.88094e-005 1.09528e-006 8.52237e-006 3.41516 5.74911e-007 -8.77053e-006 -1.09409e-005 1.43827e-007 -8.01776e-007 12.147 0.00989498 -2.21663 9.44697e-006 -1.12432e-006 -9.57832e-007 3.60119 1.51294e-006 3.51122e-005 -1.88094e-005 1.09528e-006 8.52237e-006 3.30732 4.53174e-006 -2.08933e-005 -1.09409e-005 1.43827e-007 -8.01776e-007 10.9082 -0.226365 -4.72582 0.509588 0.0180366 4.05428 4.13665 2.29995e-006 2.68984e-005 -0.509597 0.0180387 -4.05428 2.59484 5.93904e-008 -3.6009e-005 -1.09409e-005 5.52891e-007 -8.01776e-007 -6.1057 9.11051 0.705563 -16.5785 1.91173 11.6852 -12.655 -0.266021 -2.6009 63.6238 38.63 45.673 -27.4047 3.28841e-005 5.27564e-006 1.48715e-005 3.416e-006 102.936 -27.6145 2.26615e-005 1.83241e-005 40.6943 0.938687 -7.49141 -12.7755 8.94577e-006 1.80116e-005 1.82208e-007 1.24852e-006 -1.66469e-006 -3.61397 2.7565e-006 3.08034e-006 1.06168e-005 -2.86762e-006 2.11735e-006 -3.45976 -1.97218e-007 -2.64579e-005 6.94929e-006 4.55707e-007 -2.96483e-006 -3.78881 -2.167 3.00309 -6.57626 -1.42764 -3.76934 -3.67544 -2.12201 2.12201 -0.222512 4.67162 -8.61635 -3.39436 -1.95975 1.95979 -2.09531 -1.27849 0.0916561 -12.2666 -0.231673 2.82206 1.82208e-007 1.24852e-006 -1.66469e-006 -3.89197 -7.20555e-008 3.7513e-005 1.80323e-005 -4.29841e-006 3.22008e-006 -3.41516 2.52991e-007 -8.60584e-006 1.02417e-005 8.71879e-007 -2.78255e-006 -12.147 0.0098909 -2.21663 1.82208e-007 1.24852e-006 -1.66469e-006 -3.60119 2.38565e-007 3.4867e-005 3.56895e-005 -3.38095e-006 1.54026e-006 -3.30732 3.76018e-006 -2.11146e-005 1.02417e-005 8.71879e-007 -2.78255e-006 -10.9082 -0.226369 -4.72582 1.82208e-007 1.24852e-006 -1.66469e-006 -4.13665 4.31063e-007 2.56096e-005 1.06168e-005 -2.86762e-006 2.11735e-006 -2.59484 -9.57149e-007 -3.66612e-005 6.94929e-006 4.55707e-007 -2.96483e-006 -9.12445 -6.6564 -0.0553779 12.111 -32.2089 9.55745 -0.24468 -40.5954 -0.514528 -61.1219 85.7375 51.6852 0.244669 -42.0479 -2.06023 8.65273 31.1063 -6.34722 -0.37336 -10.4922 12.6407 -1.84634e-005 -15.6376 1.94796e-006 9.12445 -6.6564 -0.0553779 44.1274 -85.8735 44.997 0.24468 -40.5954 -0.517041 -137.129 89.2087 135.67 -0.24467 -42.048 -2.05764 -4.3726 -5.70308 0.00415334 0.37336 -10.4922 12.6407 6.73203e-006 8.12513e-006 -1.1243e-006 
9.46173 13.2792 -18.559 56.1309 -79.2041 131.289 5.64832e-007 9.92346 -1.22733 -6.02508 16.3472 -8.63922 -0.000138865 11.6454 -1.42234 -4.18113 10.5211 -4.27929 9.14407e-005 13.3602 -1.62646 -4.051 10.3493 -4.77791 2.52021e-005 15.0325 0.792905 -14.3759 -4.77143 6.26295 2.37075e-006 10.3218 3.14243 -16.8564 -30.0978 3.50589 6.10582 9.11042 0.705551 29.8877 1.16834 -6.19873 12.655 -0.265934 -2.60092 -125.057 -36.851 -98.8861 27.4047 3.91267e-005 6.58811e-006 1.0681e-007 2.93865e-007 -28.8834 27.6145 2.89518e-005 1.96466e-005 8.49069 2.91598 16.153 12.7755 1.3342e-005 2.04185e-005 0.0159924 1.16361e-006 -0.00193421 3.61397 2.66014e-006 2.46236e-006 -0.016002 -1.18122e-006 0.00193675 3.45976 5.43247e-007 -2.64197e-005 -1.17651e-005 -4.71598e-007 -9.29213e-007 3.78881 -2.167 3.00309 6.13176 -1.13776 3.83288 3.67544 -2.12201 2.12201 0.740429 4.04263 7.89749 3.39436 -1.95974 1.95979 2.53773 -0.509691 1.59813 12.2666 -0.231669 2.82206 1.04854e-005 3.27826e-007 -2.47763e-006 3.89197 1.68687e-006 3.87215e-005 -2.04496e-005 -2.02721e-006 5.28508e-006 3.41516 5.74911e-007 -8.77053e-006 -1.11252e-005 1.71206e-007 7.74209e-007 12.147 0.00989498 -2.21663 1.04854e-005 3.27826e-007 -2.47763e-006 3.60119 1.51294e-006 3.51122e-005 -2.04496e-005 -2.02721e-006 5.28508e-006 3.30732 4.53174e-006 -2.08933e-005 -1.11252e-005 1.71206e-007 7.74209e-007 10.9082 -0.226365 -4.72582 0.509587 0.0180357 4.05428 4.13665 2.29995e-006 2.68984e-005 -0.509597 0.0180387 -4.05428 2.59484 5.93904e-008 -3.6009e-005 -1.19656e-005 -3.27825e-007 7.07837e-007 -6.1057 9.11051 0.705563 -16.8917 1.85368 11.5693 -12.655 -0.266021 -2.6009 63.5875 39.0932 45.9509 -27.4047 3.28841e-005 5.27564e-006 -1.563e-005 3.34531e-006 102.664 -27.6145 2.26615e-005 1.83241e-005 38.7434 1.29767 -9.27465 -12.7755 8.94577e-006 1.80116e-005 -2.98177e-015 2.38542e-015 -1.59028e-015 -3.61397 2.7565e-006 3.08034e-006 3.29423e-005 1.32901e-006 -2.65107e-006 -3.45976 -1.97218e-007 -2.64579e-005 -6.71912e-006 -7.14845e-006 1.33405e-006 -3.78881 -2.167 3.00309 -6.57625 -1.42764 -3.76934 -3.67544 -2.12201 2.12201 -0.222495 4.67163 -8.61635 -3.39436 -1.95975 1.95979 -2.09532 -1.27848 0.0916501 -12.2666 -0.231673 2.82206 -2.98177e-015 2.38542e-015 -1.59028e-015 -3.89197 -7.20555e-008 3.7513e-005 3.06768e-005 4.39071e-007 -1.02902e-006 -3.41516 2.52991e-007 -8.60584e-006 -6.71912e-006 -2.9235e-006 1.33405e-006 -12.147 0.0098909 -2.21663 -2.98177e-015 2.38542e-015 -1.59028e-015 -3.60119 2.38565e-007 3.4867e-005 3.29423e-005 1.32901e-006 -2.65107e-006 -3.30732 3.76018e-006 -2.11146e-005 -6.71912e-006 -7.14845e-006 1.33405e-006 -10.9082 -0.226369 -4.72582 -2.98177e-015 2.38542e-015 -1.59028e-015 -4.13665 4.31063e-007 2.56096e-005 3.29423e-005 1.32901e-006 -2.65107e-006 -2.59484 -9.57149e-007 -3.66612e-005 -6.71912e-006 -7.14845e-006 1.33405e-006 -9.12445 -6.6564 -0.0553779 12.1251 -32.1039 9.50472 -0.24468 -40.5954 -0.514528 -61.769 85.7412 52.3251 0.244669 -42.0479 -2.06023 8.47119 31.0351 -6.1935 -0.37336 -10.4922 12.6407 1.72903e-005 -15.5555 2.70459e-006 9.12445 -6.6564 -0.0553779 43.0113 -85.4921 43.768 0.24468 -40.5954 -0.517041 -135.614 89.0188 133.296 -0.24467 -42.048 -2.05764 -4.53526 -7.56261 -0.0663375 0.37336 -10.4922 12.6407 2.50944e-005 6.81321e-006 1.28942e-005 
9.53125 13.2937 -18.5231 56.6786 -79.2063 131.698 5.64832e-007 9.92346 -1.22733 -5.89326 16.229 -8.64139 -0.000138865 11.6454 -1.42234 -4.13092 10.4424 -4.33238 9.14407e-005 13.3602 -1.62646 -3.99765 10.269 -4.83065 2.52021e-005 15.0325 0.792905 -14.6034 -4.5595 6.31474 2.37075e-006 10.3218 3.14243 -16.8272 -30.1033 3.59335 6.10582 9.11042 0.705551 29.4394 1.31354 -6.1313 12.655 -0.265934 -2.60092 -124.669 -36.9579 -98.6657 27.4047 3.91267e-005 6.58811e-006 -7.4072e-008 -3.74746e-007 -28.7324 27.6145 2.89518e-005 1.96466e-005 8.66967 3.62471 15.9032 12.7755 1.3342e-005 2.04185e-005 0.0159906 5.35367e-007 -0.00192717 3.61397 2.66014e-006 2.46236e-006 -0.0160009 5.84807e-007 0.00192787 3.45976 5.43247e-007 -2.64197e-005 -1.0216e-005 8.08596e-007 -3.0741e-006 3.78881 -2.167 3.00309 6.13176 -1.13776 3.83288 3.67544 -2.12201 2.12201 0.740432 4.04263 7.89749 3.39436 -1.95974 1.95979 2.53773 -0.509694 1.59813 12.2666 -0.231669 2.82206 1.00621e-005 1.30037e-007 9.36005e-007 3.89197 1.68687e-006 3.87215e-005 -1.51552e-005 6.78559e-007 5.2167e-006 3.41516 5.74911e-007 -8.77053e-006 -9.44873e-006 -6.74386e-007 7.77672e-007 12.147 0.00989498 -2.21663 1.00621e-005 1.30037e-007 9.36005e-007 3.60119 1.51294e-006 3.51122e-005 -1.51552e-005 6.78559e-007 5.2167e-006 3.30732 4.53174e-006 -2.08933e-005 -9.44873e-006 -6.74386e-007 7.77672e-007 10.9082 -0.226365 -4.72582 0.509583 0.0180359 4.05428 4.13665 2.29995e-006 2.68984e-005 -0.509592 0.0180409 -4.05427 2.59484 5.93904e-008 -3.6009e-005 -5.32741e-006 -1.53337e-006 4.94145e-006 -6.1057 9.11051 0.705563 -17.0904 1.81182 11.4421 -12.655 -0.266021 -2.6009 63.5112 39.4917 46.1923 -27.4047 3.28841e-005 5.27564e-006 3.01557e-005 3.30322e-006 102.502 -27.6145 2.26615e-005 1.83241e-005 36.9349 1.51021 -10.6016 -12.7755 8.94577e-006 1.80116e-005 3.43828e-006 -5.03e-007 -1.50665e-006 -3.61397 2.7565e-006 3.08034e-006 6.87656e-006 7.79128e-007 -3.0133e-006 -3.45976 -1.97218e-007 -2.64579e-005 2.11108e-007 2.05479e-006 -1.64383e-006 -3.78881 -2.167 3.00309 -6.57625 -1.42764 -3.76934 -3.67544 -2.12201 2.12201 -0.222506 4.67163 -8.61636 -3.39436 -1.95975 1.95979 -2.09532 -1.27849 0.0916546 -12.2666 -0.231673 2.82206 3.43828e-006 -5.03e-007 -1.50665e-006 -3.89197 -7.20555e-008 3.7513e-005 6.87656e-006 7.79128e-007 -3.0133e-006 -3.41516 2.52991e-007 -8.60584e-006 2.11108e-007 2.05479e-006 -1.64383e-006 -12.147 0.0098909 -2.21663 3.43828e-006 -5.03e-007 -1.50665e-006 -3.60119 2.38565e-007 3.4867e-005 1.33309e-005 1.55826e-006 -2.73894e-006 -3.30732 3.76018e-006 -2.11146e-005 2.11108e-007 2.46575e-006 -1.64383e-006 -10.9082 -0.226369 -4.72582 3.43828e-006 -5.03e-007 -1.50665e-006 -4.13665 4.31063e-007 2.56096e-005 6.87656e-006 7.79128e-007 -3.0133e-006 -2.59484 -9.57149e-007 -3.66612e-005 2.11108e-007 2.05479e-006 -1.64383e-006 -9.12445 -6.6564 -0.0553779 12.1426 -31.9905 9.43216 -0.24468 -40.5954 -0.514528 -62.3028 85.7444 52.8658 0.244669 -42.0479 -2.06023 8.29988 30.9597 -6.07012 -0.37336 -10.4922 12.6407 6.27891e-006 -15.49 -6.60365e-006 9.12445 -6.6564 -0.0553779 42.2411 -85.1154 42.8716 0.24468 -40.5954 -0.517041 -134.511 88.8325 131.409 -0.24467 -42.048 -2.05764 -4.66162 -9.23659 -0.136728 0.37336 -10.4922 12.6407 4.69439e-006 -9.48979e-006 4.85873e-006 
9.59818 13.3196 -18.4889 57.2666 -79.2119 132.162 5.64832e-007 9.92346 -1.22733 -5.77485 16.118 -8.63863 -0.000138865 11.6454 -1.42234 -4.08387 10.3654 -4.37766 9.14407e-005 13.3602 -1.62646 -3.94743 10.1915 -4.87415 2.52021e-005 15.0325 0.792905 -14.8817 -4.29515 6.35567 2.37075e-006 10.3218 3.14243 -16.7167 -30.1816 3.69754 6.10582 9.11042 0.705551 28.9954 1.39093 -6.06753 12.655 -0.265934 -2.60092 -124.104 -37.1116 -98.308 27.4047 3.91267e-005 6.58811e-006 2.50814e-007 9.01109e-007 -28.5498 27.6145 2.89518e-005 1.96466e-005 8.70696 4.65266 15.7075 12.7755 1.3342e-005 2.04185e-005 0.0159904 -1.2762e-006 -0.00192677 3.61397 2.66014e-006 2.46236e-006 -0.0160005 1.20255e-006 0.00192708 3.45976 5.43247e-007 -2.64197e-005 -1.1703e-005 -1.66777e-006 -1.34205e-006 3.78881 -2.167 3.00309 6.13176 -1.13776 3.83289 3.67544 -2.12201 2.12201 0.740431 4.04263 7.89749 3.39436 -1.95974 1.95979 2.53773 -0.50969 1.59812 12.2666 -0.231669 2.82206 6.68917e-006 6.191e-007 -2.94294e-006 3.89197 1.68687e-006 3.87215e-005 -1.53101e-005 -7.37623e-007 3.6159e-006 3.41516 5.74911e-007 -8.77053e-006 -1.02928e-005 -5.01965e-007 4.81242e-007 12.147 0.00989498 -2.21663 6.68917e-006 6.191e-007 -2.94294e-006 3.60119 1.51294e-006 3.51122e-005 -1.38999e-005 -3.87604e-007 5.43919e-006 3.30732 4.53174e-006 -2.08933e-005 -1.02928e-005 -1.31775e-006 4.81242e-007 10.9082 -0.226365 -4.72582 0.509586 0.0180369 4.05428 4.13665 2.29995e-006 2.68984e-005 -0.509592 0.0180387 -4.05428 2.59484 5.93904e-008 -3.6009e-005 -1.13886e-005 6.63838e-007 -1.69287e-006 -6.1057 9.11051 0.705563 -17.2022 1.78604 11.3333 -12.655 -0.266021 -2.6009 63.4284 39.7796 46.3407 -27.4047 3.28841e-005 5.27564e-006 1.48972e-005 3.30223e-006 102.499 -27.6145 2.26615e-005 1.83241e-005 35.3887 1.54878 -11.921 -12.7755 8.94577e-006 1.80116e-005 -1.13216e-005 6.64575e-006 -8.70669e-007 -3.61397 2.7565e-006 3.08034e-006 2.15719e-005 -8.6101e-006 -3.70343e-006 -3.45976 -1.97218e-007 -2.64579e-005 7.51166e-006 2.17517e-006 1.20022e-006 -3.78881 -2.167 3.00309 -6.57624 -1.42764 -3.76934 -3.67544 -2.12201 2.12201 -0.2225 4.67162 -8.61636 -3.39436 -1.95975 1.95979 -2.09534 -1.27849 0.0916524 -12.2666 -0.231673 2.82206 -1.13216e-005 6.64575e-006 -8.70669e-007 -3.89197 -7.20555e-008 3.7513e-005 1.56892e-005 -4.79937e-006 -2.50397e-006 -3.41516 2.52991e-007 -8.60584e-006 2.09061e-005 -1.58304e-006 1.20097e-006 -12.147 0.0098909 -2.21663 -1.13216e-005 6.64575e-006 -8.70669e-007 -3.60119 2.38565e-007 3.4867e-005 1.81551e-005 -6.81268e-006 -2.17873e-006 -3.30732 3.76018e-006 -2.11146e-005 7.51166e-006 2.99257e-006 1.20022e-006 -10.9082 -0.226369 -4.72582 -1.13216e-005 6.64575e-006 -8.70669e-007 -4.13665 4.31063e-007 2.56096e-005 1.81551e-005 -6.81268e-006 -2.17873e-006 -2.59484 -9.57149e-007 -3.66612e-005 7.51166e-006 2.99257e-006 1.20022e-006 -9.12445 -6.6564 -0.0553779 12.1672 -31.869 9.35133 -0.24468 -40.5954 -0.514528 -62.665 85.7513 53.236 0.244669 -42.0479 -2.06023 8.15035 30.8808 -5.96754 -0.37336 -10.4922 12.6407 1.42474e-005 -15.4161 1.19274e-005 9.12445 -6.6564 -0.0553779 41.8051 -84.7487 42.3005 0.24468 -40.5954 -0.517041 -133.612 88.6508 129.848 -0.24467 -42.048 -2.05764 -4.70884 -10.6983 -0.201645 0.37336 -10.4922 12.6407 3.21195e-006 -6.97654e-007 -1.68062e-006 
